<svg viewBox="0 0 500 500" xmlns="http://www.w3.org/2000/svg"><path fill="#FFF" fill-rule="evenodd" d="M407.67 243.548h-15.1v-55.13h15.09c20.15 0 36.2 6.63 36.2 27.21 0 21.25-16.05 27.91-36.21 27.91Zm-162.52 39.4c-8 0-15.49-1.46-21.97-3.89l21.74-68.469h.46l21.29 68.65c-6.42 2.29-13.72 3.7-21.53 3.7m158.484-139.317h-68.57v162.75L275.15 143.61h-59.38l-51.18 136.07c-5.41-34.3-41-46.17-68.98-55.03 -18.45-5.93-38.08-14.631-37.9-24.28 .15-7.89 10.54-15.2 31.03-14.11 13.81.69 25.99 1.81 50.17 13.48l23.82-41.43c-22.07-11.26-52.65-18.32-77.66-18.38h-.16c-29.19 0-53.5 9.49-68.59 25.04C5.83 175.84.16 189.6-.1 204.91c-.39 20.97 7.34 35.86 23.54 47.76 13.7 10.02 31.18 16.47 46.62 21.3 19.04 5.86 34.59 10.98 34.41 21.89 -.16 3.97-1.64 7.69-4.52 10.64 -4.75 4.91-12.03 6.73-22.11 6.96 -19.43.38-33.84-2.64-56.79-16.18l-21.18 42c22.88 13 49.96 20.61 77.61 20.61h3.57c24.05-.47 43.48-7.32 59-19.78l2.51-2.2 -6.86 18.4h62.26l10.45-31.75c10.94 3.69 23.4 5.77 36.59 5.77 12.87 0 25.01-1.94 35.76-5.47l10.05 31.44h101.596v-65.76h22.16c53.53 0 85.24-27.21 85.24-72.86 0-50.81-30.79-74.12-96.34-74.12"/></svg>