<svg viewBox="0 0 500 500" xmlns="http://www.w3.org/2000/svg"><defs><clipPath id="a"><path d="M0 0h500v500H0Z"/></clipPath></defs><g clip-path="url(#a)"><path fill="#FF3838" d="M121.99 0h255.97c67.37 0 121.99 54.61 121.99 121.99v255.97c0 67.37-54.62 121.99-121.99 121.99H121.98C54.6 499.95-.01 445.33-.01 377.96V121.98C-.01 54.6 54.6-.01 121.98-.01Z"/><path fill="#FFF" fill-rule="evenodd" d="M354.066 246.248h-9.97v-36.34h9.96c13.3 0 23.89 4.37 23.89 17.93 0 14-10.59 18.399-23.9 18.399ZM246.8 272.21c-5.28 0-10.23-.96-14.5-2.57l14.35-45.13h.3l14.05 45.25c-4.24 1.51-9.06 2.44-14.21 2.44m104.6-91.83h-45.26v107.27l-39.54-107.27H227.4l-33.78 89.68c-3.57-22.61-27.06-30.43-45.53-36.27 -12.18-3.91-25.13-9.65-25.02-16 .1-5.2 6.96-10.02 20.48-9.3 9.11.46 17.15 1.19 33.11 8.88l15.72-27.31c-14.57-7.42-34.75-12.08-51.26-12.11h-.11c-19.26 0-35.31 6.25-45.27 16.5 -6.92 7.16-10.67 16.23-10.84 26.32 -.26 13.82 4.84 23.63 15.53 31.482 9.04 6.6 20.58 10.85 30.77 14.04 12.57 3.86 22.83 7.23 22.71 14.43 -.11 2.61-1.09 5.07-2.99 7.01 -3.13 3.24-7.94 4.44-14.59 4.58 -12.83.25-22.34-1.74-37.48-10.66l-13.98 27.68c15.1 8.57 32.97 13.58 51.22 13.58h2.36c15.875-.31 28.69-4.83 38.94-13.04l1.65-1.45 -4.53 12.13h41.09l6.9-20.93c7.22 2.43 15.44 3.8 24.15 3.8 8.49 0 16.51-1.28 23.6-3.61l6.63 20.72h67.053v-43.35h14.63c35.33 0 56.25-17.93 56.25-48.02 0-33.49-20.32-48.85-63.59-48.85"/></g></svg>